<mxfile host="app.diagrams.net" modified="2023-09-19T21:17:55.237Z" agent="Mozilla/5.0 (Windows NT 10.0; Win64; x64) AppleWebKit/537.36 (KHTML, like Gecko) Chrome/116.0.0.0 Safari/537.36 OPR/102.0.0.0" etag="pdod6ofeDAmKtcL5ywGe" version="21.7.5" type="device">
  <diagram name="Страница — 1" id="LzyDF6T5dmaxvNK5LSAB">
    <mxGraphModel dx="1636" dy="1367" grid="1" gridSize="10" guides="1" tooltips="1" connect="1" arrows="1" fold="1" page="0" pageScale="1" pageWidth="827" pageHeight="1169" math="0" shadow="0">
      <root>
        <mxCell id="0" />
        <mxCell id="1" parent="0" />
        <mxCell id="sV1G8SSPFHCZdC1-tWbE-1" value="&lt;font face=&quot;Times New Roman&quot;&gt;&lt;span style=&quot;font-size: 14px;&quot;&gt;Добавление поста&lt;/span&gt;&lt;/font&gt;" style="rounded=0;whiteSpace=wrap;html=1;" vertex="1" parent="1">
          <mxGeometry x="120" y="-400" width="240" height="80" as="geometry" />
        </mxCell>
        <mxCell id="sV1G8SSPFHCZdC1-tWbE-2" value="" style="endArrow=classic;html=1;rounded=0;entryX=0;entryY=0.25;entryDx=0;entryDy=0;" edge="1" parent="1" target="sV1G8SSPFHCZdC1-tWbE-1">
          <mxGeometry width="50" height="50" relative="1" as="geometry">
            <mxPoint x="-40" y="-380" as="sourcePoint" />
            <mxPoint x="120" y="-380" as="targetPoint" />
            <Array as="points">
              <mxPoint x="-20" y="-380" />
            </Array>
          </mxGeometry>
        </mxCell>
        <mxCell id="sV1G8SSPFHCZdC1-tWbE-14" value="" style="endArrow=classic;html=1;rounded=0;entryX=0;entryY=0.5;entryDx=0;entryDy=0;" edge="1" parent="1">
          <mxGeometry width="50" height="50" relative="1" as="geometry">
            <mxPoint x="360" y="-360.42" as="sourcePoint" />
            <mxPoint x="520" y="-360.42" as="targetPoint" />
            <Array as="points">
              <mxPoint x="460" y="-360.42" />
            </Array>
          </mxGeometry>
        </mxCell>
        <mxCell id="sV1G8SSPFHCZdC1-tWbE-15" value="" style="endArrow=classic;html=1;rounded=0;entryX=0.5;entryY=1;entryDx=0;entryDy=0;" edge="1" parent="1">
          <mxGeometry width="50" height="50" relative="1" as="geometry">
            <mxPoint x="200" y="-200" as="sourcePoint" />
            <mxPoint x="200" y="-320" as="targetPoint" />
            <Array as="points">
              <mxPoint x="200" y="-200" />
            </Array>
          </mxGeometry>
        </mxCell>
        <mxCell id="sV1G8SSPFHCZdC1-tWbE-16" value="" style="endArrow=classic;html=1;rounded=0;entryX=0.5;entryY=0;entryDx=0;entryDy=0;" edge="1" parent="1" target="sV1G8SSPFHCZdC1-tWbE-1">
          <mxGeometry width="50" height="50" relative="1" as="geometry">
            <mxPoint x="240" y="-520" as="sourcePoint" />
            <mxPoint x="210" y="-590" as="targetPoint" />
            <Array as="points" />
          </mxGeometry>
        </mxCell>
        <mxCell id="sV1G8SSPFHCZdC1-tWbE-17" value="&lt;span style=&quot;font-weight: normal;&quot;&gt;&lt;font face=&quot;Times New Roman&quot; style=&quot;font-size: 14px;&quot;&gt;А0&lt;/font&gt;&lt;/span&gt;" style="text;strokeColor=none;fillColor=none;html=1;fontSize=24;fontStyle=1;verticalAlign=middle;align=center;" vertex="1" parent="1">
          <mxGeometry x="290" y="-360" width="100" height="40" as="geometry" />
        </mxCell>
        <mxCell id="sV1G8SSPFHCZdC1-tWbE-18" value="" style="endArrow=classic;html=1;rounded=0;entryX=0;entryY=0.5;entryDx=0;entryDy=0;" edge="1" parent="1">
          <mxGeometry width="50" height="50" relative="1" as="geometry">
            <mxPoint x="-40" y="-340.5" as="sourcePoint" />
            <mxPoint x="120" y="-340.5" as="targetPoint" />
            <Array as="points">
              <mxPoint x="-20" y="-340.5" />
            </Array>
          </mxGeometry>
        </mxCell>
        <mxCell id="sV1G8SSPFHCZdC1-tWbE-20" value="&lt;font style=&quot;font-size: 14px;&quot; face=&quot;Times New Roman&quot;&gt;Изображение/видео&lt;/font&gt;" style="text;html=1;align=center;verticalAlign=middle;resizable=0;points=[];autosize=1;strokeColor=none;fillColor=none;" vertex="1" parent="1">
          <mxGeometry x="-30" y="-410" width="140" height="30" as="geometry" />
        </mxCell>
        <mxCell id="sV1G8SSPFHCZdC1-tWbE-21" value="&lt;font style=&quot;font-size: 14px;&quot; face=&quot;Times New Roman&quot;&gt;Текст поста&lt;/font&gt;" style="text;html=1;align=center;verticalAlign=middle;resizable=0;points=[];autosize=1;strokeColor=none;fillColor=none;" vertex="1" parent="1">
          <mxGeometry x="-5" y="-375" width="90" height="30" as="geometry" />
        </mxCell>
        <mxCell id="sV1G8SSPFHCZdC1-tWbE-22" value="&lt;font face=&quot;Times New Roman&quot;&gt;&lt;span style=&quot;font-size: 14px;&quot;&gt;Новый пост&lt;/span&gt;&lt;/font&gt;" style="text;html=1;align=center;verticalAlign=middle;resizable=0;points=[];autosize=1;strokeColor=none;fillColor=none;" vertex="1" parent="1">
          <mxGeometry x="390" y="-390" width="90" height="30" as="geometry" />
        </mxCell>
        <mxCell id="sV1G8SSPFHCZdC1-tWbE-23" value="&lt;font style=&quot;font-size: 14px;&quot; face=&quot;Times New Roman&quot;&gt;Сервер базы даннных&lt;/font&gt;" style="text;html=1;align=center;verticalAlign=middle;resizable=0;points=[];autosize=1;strokeColor=none;fillColor=none;" vertex="1" parent="1">
          <mxGeometry x="240" y="-480" width="150" height="30" as="geometry" />
        </mxCell>
        <mxCell id="sV1G8SSPFHCZdC1-tWbE-24" value="" style="endArrow=classic;html=1;rounded=0;entryX=0.5;entryY=1;entryDx=0;entryDy=0;" edge="1" parent="1">
          <mxGeometry width="50" height="50" relative="1" as="geometry">
            <mxPoint x="280" y="-200" as="sourcePoint" />
            <mxPoint x="280" y="-320" as="targetPoint" />
            <Array as="points">
              <mxPoint x="280" y="-200" />
            </Array>
          </mxGeometry>
        </mxCell>
        <mxCell id="sV1G8SSPFHCZdC1-tWbE-25" value="&lt;font style=&quot;font-size: 14px;&quot; face=&quot;Times New Roman&quot;&gt;Пользователь&lt;/font&gt;" style="text;html=1;align=center;verticalAlign=middle;resizable=0;points=[];autosize=1;strokeColor=none;fillColor=none;" vertex="1" parent="1">
          <mxGeometry x="280" y="-280" width="100" height="30" as="geometry" />
        </mxCell>
        <mxCell id="sV1G8SSPFHCZdC1-tWbE-26" value="&lt;font style=&quot;font-size: 14px;&quot; face=&quot;Times New Roman&quot;&gt;Администратор&lt;/font&gt;" style="text;html=1;align=center;verticalAlign=middle;resizable=0;points=[];autosize=1;strokeColor=none;fillColor=none;" vertex="1" parent="1">
          <mxGeometry x="80" y="-280" width="120" height="30" as="geometry" />
        </mxCell>
      </root>
    </mxGraphModel>
  </diagram>
</mxfile>
